<svg width="25" height="25" viewBox="0 0 25 25" fill="none" xmlns="http://www.w3.org/2000/svg">
<g clip-path="url(#clip0_6_48)">
<path d="M4.4781 23.2031C4.35622 23.8968 5.0406 24.439 5.64372 24.1296L12.5031 20.6046L19.3609 24.1296C19.964 24.439 20.6484 23.8968 20.5265 23.2046L19.2297 15.814L24.7328 10.5703C25.2484 10.0796 24.9828 9.18277 24.2922 9.08589L16.639 7.99839L13.2265 1.23746C13.1615 1.10041 13.059 0.984617 12.9308 0.903538C12.8026 0.822459 12.654 0.779419 12.5023 0.779419C12.3506 0.779419 12.2021 0.822459 12.0739 0.903538C11.9457 0.984617 11.8431 1.10041 11.7781 1.23746L8.3656 7.99996L0.712471 9.08746C0.0234087 9.18433 -0.243779 10.0812 0.270284 10.5718L5.77497 15.8156L4.4781 23.2062V23.2031ZM12.1422 18.8796L6.38278 21.839L7.46716 15.6562C7.49256 15.5139 7.48262 15.3675 7.43821 15.2299C7.39381 15.0923 7.31629 14.9678 7.21247 14.8671L2.67185 10.539L9.0031 9.63902C9.1342 9.61922 9.25855 9.56794 9.36549 9.48957C9.47244 9.4112 9.55879 9.30807 9.61716 9.18902L12.5 3.47339L15.3859 9.18902C15.4443 9.30807 15.5306 9.4112 15.6376 9.48957C15.7445 9.56794 15.8689 9.61922 16 9.63902L22.3312 10.5375L17.7906 14.8656C17.6865 14.9664 17.6089 15.0912 17.5645 15.2291C17.52 15.3669 17.5102 15.5136 17.5359 15.6562L18.6203 21.839L12.8609 18.8796C12.7495 18.8222 12.6261 18.7923 12.5008 18.7923C12.3755 18.7923 12.252 18.8222 12.1406 18.8796H12.1422Z" fill="#5b4d51"/>
</g>
<defs>
<clipPath id="clip0_6_48">
<rect width="25" height="25" fill="white"/>
</clipPath>
</defs>
</svg>
