<svg width="29" height="25" viewBox="0 0 29 25" fill="none" xmlns="http://www.w3.org/2000/svg">
<path d="M20.7816 16.1625C22.4459 14.098 23.1913 11.5383 22.8687 8.99558C22.5461 6.45286 21.1794 4.11463 19.0418 2.44868C16.9043 0.782724 14.1537 -0.0880845 11.3402 0.0104673C8.5268 0.109019 5.85803 1.16966 3.86786 2.9802C1.87769 4.79074 0.712891 7.21765 0.606497 9.7754C0.500103 12.3331 1.45996 14.8331 3.29404 16.7751C5.12811 18.7171 7.70115 19.958 10.4984 20.2494C13.2956 20.5408 16.1107 19.8613 18.3805 18.3469H18.3788C18.4304 18.4094 18.4854 18.4688 18.5472 18.5266L25.1644 24.5422C25.4867 24.8354 25.9239 25.0002 26.3798 25.0004C26.8358 25.0005 27.2731 24.836 27.5956 24.543C27.9181 24.25 28.0994 23.8526 28.0995 23.4381C28.0997 23.0236 27.9187 22.626 27.5965 22.3328L20.9793 16.3172C20.9178 16.2607 20.8517 16.2084 20.7816 16.161V16.1625ZM21.2251 10.1563C21.2251 11.2848 20.9805 12.4023 20.5055 13.445C20.0304 14.4876 19.3341 15.435 18.4563 16.233C17.5785 17.031 16.5364 17.664 15.3895 18.0959C14.2426 18.5278 13.0133 18.75 11.7719 18.75C10.5305 18.75 9.30128 18.5278 8.15438 18.0959C7.00747 17.664 5.96536 17.031 5.08756 16.233C4.20976 15.435 3.51344 14.4876 3.03838 13.445C2.56332 12.4023 2.3188 11.2848 2.3188 10.1563C2.3188 7.87708 3.31476 5.69123 5.08756 4.07959C6.86036 2.46795 9.2648 1.56254 11.7719 1.56254C14.2791 1.56254 16.6835 2.46795 18.4563 4.07959C20.2291 5.69123 21.2251 7.87708 21.2251 10.1563Z" fill="#5b4d51"/>
</svg>
